<svg width="383" height="293" viewBox="0 0 383 293" fill="none" xmlns="http://www.w3.org/2000/svg">
<rect width="305" height="293" rx="130" fill="#5B6477"/>
<path d="M333.403 29.8113L333.995 20.8307L343.585 21.4626L342.325 30.9905L333.403 29.8113ZM333.403 29.8113C333.995 20.8307 333.992 20.8306 333.989 20.8304L333.982 20.8299L333.967 20.829L333.928 20.8265C333.898 20.8247 333.861 20.8225 333.815 20.82C333.725 20.8149 333.604 20.8086 333.455 20.8017C333.156 20.7881 332.741 20.7722 332.22 20.7598C331.178 20.735 329.709 20.7238 327.895 20.7716C324.276 20.8672 319.232 21.1991 313.438 22.145C301.983 24.0145 286.864 28.4011 274.164 38.8136L274.164 38.8138C261.465 49.2271 254.201 63.1945 250.123 74.0603C248.059 79.5577 246.746 84.4382 245.943 87.9686C245.54 89.7382 245.263 91.1809 245.083 92.207C244.994 92.7205 244.928 93.1307 244.883 93.4266C244.86 93.5745 244.843 93.694 244.83 93.7836C244.823 93.8284 244.818 93.8658 244.814 93.8955L244.809 93.9343L244.807 93.9494L244.806 93.9559C244.806 93.9588 244.805 93.9616 253.728 95.1413M333.403 29.8113C342.325 30.9905 342.325 30.9933 342.325 30.9963L342.324 31.0027L342.322 31.0178L342.316 31.0567C342.312 31.0864 342.307 31.1237 342.301 31.1685C342.288 31.2581 342.271 31.3776 342.248 31.5256C342.203 31.8215 342.137 32.2317 342.047 32.7451C341.867 33.7713 341.591 35.214 341.188 36.9836C340.385 40.514 339.072 45.3945 337.009 50.8919C332.931 61.7576 325.667 75.7249 312.968 86.1375M253.728 95.1413C253.136 104.122 253.139 104.122 253.142 104.122L253.148 104.123L253.163 104.124L253.202 104.126C253.232 104.128 253.27 104.13 253.315 104.133C253.406 104.138 253.526 104.144 253.676 104.151C253.975 104.165 254.39 104.18 254.911 104.193C255.952 104.218 257.422 104.229 259.236 104.181C262.855 104.085 267.899 103.753 273.694 102.807C285.148 100.938 300.268 96.5509 312.968 86.1375M253.728 95.1413L244.805 93.9616L243.545 103.49L253.136 104.122L253.728 95.1413ZM312.968 86.1375L307.261 79.1779L312.968 86.1375ZM262.647 96.3415C262.647 96.3416 262.647 96.3416 262.647 96.3415L262.647 96.3415Z" fill="#5B6477" stroke="#5B6477" stroke-width="18"/>
<path d="M357 86.9877L361.487 79.1861L369.818 83.978L364.49 91.977L357 86.9877ZM357 86.9877C364.49 91.977 364.489 91.9794 364.487 91.9818L364.483 91.9872L364.475 91.9999L364.453 92.0324C364.436 92.0573 364.415 92.0886 364.39 92.126C364.339 92.2008 364.271 92.3004 364.185 92.4233C364.014 92.669 363.774 93.0083 363.468 93.4296C362.854 94.2717 361.97 95.4449 360.829 96.8563C358.553 99.6721 355.224 103.475 350.95 107.501C342.503 115.46 329.828 124.8 313.84 128.554L313.84 128.554C297.852 132.308 282.345 129.585 271.239 126.218C265.619 124.515 260.945 122.591 257.654 121.082C256.004 120.326 254.691 119.669 253.766 119.188C253.304 118.947 252.938 118.75 252.676 118.606C252.545 118.534 252.439 118.475 252.36 118.431C252.321 118.409 252.288 118.39 252.262 118.375L252.228 118.356L252.215 118.348L252.209 118.345C252.207 118.344 252.204 118.342 256.691 110.541M357 86.9877C361.487 79.1861 361.485 79.1847 361.482 79.1833L361.476 79.18L361.463 79.1725L361.429 79.153C361.416 79.1458 361.402 79.1377 361.386 79.1288C361.37 79.1193 361.351 79.1089 361.331 79.0975C361.252 79.0531 361.146 78.9943 361.015 78.9223C360.753 78.7783 360.387 78.5812 359.925 78.3405C359.001 77.8594 357.687 77.2023 356.037 76.4461C352.746 74.9375 348.072 73.0139 342.453 71.3104C331.346 67.9433 315.839 65.2213 299.852 68.9757L299.851 68.9758C283.863 72.7296 271.189 82.0686 262.741 90.027C258.467 94.0534 255.138 97.8563 252.862 100.672C251.721 102.083 250.837 103.257 250.224 104.099C249.917 104.52 249.677 104.859 249.506 105.105C249.421 105.228 249.352 105.328 249.301 105.402C249.276 105.44 249.255 105.471 249.238 105.496L249.216 105.528L249.208 105.541L249.204 105.547C249.203 105.549 249.201 105.551 256.691 110.541M256.691 110.541L249.201 105.551L243.873 113.55L252.204 118.342L256.691 110.541Z" fill="#5B6477" stroke="#5B6477" stroke-width="18"/>
<path fill-rule="evenodd" clip-rule="evenodd" d="M287.738 122.108C289.754 131.912 290.779 142.026 290.779 152.279C290.779 223.44 238.781 274.476 153.799 275.005C68.8188 274.476 16.8203 223.44 16.8203 152.279C16.8203 81.1092 66.2023 16.6421 153.799 15.9934C203.032 16.358 240.194 36.882 263.301 67.4251C267.149 60.2902 272.411 53.0281 279.558 47.1679C301.559 29.1283 333.09 31.2059 333.09 31.2059C333.09 31.2059 329.351 59.4973 310.097 77.7907C334.636 75.6993 356.687 88.3824 356.687 88.3824C356.687 88.3824 339.169 114.682 311.47 121.187C303.301 123.105 295.159 123.087 287.738 122.108Z" fill="#79A1ED"/>
<path d="M253.776 152.279C248.745 115.077 202.611 102.166 153.799 102.101C104.985 102.166 58.8513 115.077 53.8202 152.279C50.4325 177.326 67.4904 217.018 133.296 201.727C146.73 198.605 160.768 198.627 174.179 201.838C240.232 217.648 257.166 177.347 253.776 152.279Z" fill="#F4F7FB"/>
<path d="M121.417 159.476C121.417 149.987 118.137 142.642 110.395 139.423C105.993 137.592 100.937 137.691 96.5627 139.559C88.8063 142.871 85.251 149.928 85.251 159.476C85.251 159.53 85.2569 159.583 85.2584 159.638C85.2569 159.693 85.251 159.744 85.251 159.801C85.251 169.287 88.53 176.633 96.2731 179.853C100.675 181.682 105.732 181.583 110.106 179.717C117.862 176.405 121.417 169.348 121.417 159.801C121.417 159.744 121.41 159.693 121.41 159.638C121.41 159.583 121.417 159.53 121.417 159.476Z" fill="#5B6477"/>
<path d="M186.183 159.476C186.183 149.987 189.462 142.642 197.205 139.423C201.607 137.592 206.664 137.691 211.038 139.559C218.794 142.871 222.349 149.928 222.349 159.476C222.349 159.53 222.342 159.583 222.342 159.638C222.342 159.693 222.349 159.744 222.349 159.801C222.349 169.287 219.07 176.633 211.327 179.853C206.925 181.682 201.869 181.583 197.495 179.717C189.738 176.405 186.183 169.348 186.183 159.801C186.183 159.744 186.189 159.693 186.19 159.638C186.189 159.583 186.183 159.53 186.183 159.476Z" fill="#5B6477"/>
</svg>
